<?xml version="1.0" standalone="no"?>
<!DOCTYPE svg PUBLIC "-//W3C//DTD SVG 20010904//EN"
 "http://www.w3.org/TR/2001/REC-SVG-20010904/DTD/svg10.dtd">
<svg version="1.0" xmlns="http://www.w3.org/2000/svg"
 width="512.000000pt" height="512.000000pt" viewBox="0 0 512.000000 512.000000"
 preserveAspectRatio="xMidYMid meet">
<metadata>
Created by potrace 1.11, written by Peter Selinger 2001-2013
</metadata>
<g transform="translate(0.000000,512.000000) scale(0.100000,-0.100000)"
fill="#000000" stroke="none">
<path d="M2430 5059 c-435 -50 -798 -393 -875 -827 -8 -42 -14 -101 -15 -129
l0 -53 1020 0 1020 0 0 53 c-2 195 -89 420 -228 588 -176 214 -404 338 -675
368 -107 12 -139 12 -247 0z"/>
<path d="M435 4231 c-43 -19 -100 -78 -116 -118 -15 -39 -10 -116 9 -151 9
-18 146 -165 305 -326 l287 -294 0 -466 0 -465 -382 -3 -383 -3 -48 -28 c-89
-52 -127 -152 -93 -241 18 -47 79 -110 122 -126 15 -6 187 -10 404 -10 l378 0
7 -117 c16 -279 77 -548 161 -715 l23 -46 -329 -371 c-181 -203 -337 -385
-347 -403 -22 -42 -22 -141 0 -184 23 -45 81 -92 129 -105 52 -14 133 2 173
33 14 11 159 171 321 354 l295 333 59 -48 c247 -206 573 -346 856 -367 l84 -7
2 1434 3 1434 205 0 205 0 3 -1432 2 -1433 38 0 c116 0 337 53 493 119 91 38
243 127 353 206 l79 56 336 -334 c346 -345 360 -357 436 -357 140 0 245 158
187 282 -10 21 -161 184 -361 388 l-344 351 36 77 c103 221 154 438 172 745
l7 107 378 0 c210 0 390 4 403 9 70 27 136 120 137 192 0 59 -48 139 -104 174
l-49 30 -384 3 -383 3 0 472 0 471 299 301 c289 290 299 302 306 347 11 71 -2
121 -43 168 -41 48 -101 80 -152 80 -78 0 -122 -35 -420 -334 l-285 -286
-1345 0 -1345 0 -285 286 c-298 299 -342 334 -420 334 -19 0 -53 -9 -75 -19z"/>
</g>
</svg>
